<?xml version="1.0" encoding="UTF-8" standalone="no"?>
<!-- Created with Inkscape (http://www.inkscape.org/) -->

<svg
   xmlns:dc="http://purl.org/dc/elements/1.1/"
   xmlns:cc="http://creativecommons.org/ns#"
   xmlns:rdf="http://www.w3.org/1999/02/22-rdf-syntax-ns#"
   xmlns:svg="http://www.w3.org/2000/svg"
   xmlns="http://www.w3.org/2000/svg"
   xmlns:sodipodi="http://sodipodi.sourceforge.net/DTD/sodipodi-0.dtd"
   xmlns:inkscape="http://www.inkscape.org/namespaces/inkscape"
   width="700mm"
   height="700mm"
   viewBox="0 0 700 700"
   version="1.1"
   id="svg957"
   inkscape:version="0.92.3 (2405546, 2018-03-11)"
   sodipodi:docname="astrazeneca-logo.svg"
   inkscape:export-filename="C:\Users\alex\sites\astrazeneca-logo-0.png"
   inkscape:export-xdpi="148.6263"
   inkscape:export-ydpi="148.6263">
  <defs
     id="defs951">
    <clipPath
       clipPathUnits="userSpaceOnUse"
       id="clipPath18">
      <path
         d="m 422.115,772.126 h 143.429 v 40.109 H 422.115 Z"
         id="path16"
         inkscape:connector-curvature="0" />
    </clipPath>
  </defs>
  <sodipodi:namedview
     id="base"
     pagecolor="#ffffff"
     bordercolor="#666666"
     borderopacity="1.0"
     inkscape:pageopacity="0.0"
     inkscape:pageshadow="2"
     inkscape:zoom="0.175"
     inkscape:cx="1594.1977"
     inkscape:cy="1349.1513"
     inkscape:document-units="mm"
     inkscape:current-layer="layer1"
     showgrid="false"
     inkscape:window-width="1600"
     inkscape:window-height="838"
     inkscape:window-x="-8"
     inkscape:window-y="-8"
     inkscape:window-maximized="1" />
  <metadata
     id="metadata954">
    <rdf:RDF>
      <cc:Work
         rdf:about="">
        <dc:format>image/svg+xml</dc:format>
        <dc:type
           rdf:resource="http://purl.org/dc/dcmitype/StillImage" />
        <dc:title></dc:title>
      </cc:Work>
    </rdf:RDF>
  </metadata>
  <g
     inkscape:label="Camada 1"
     inkscape:groupmode="layer"
     id="layer1"
     transform="translate(0,403)">
    <g
       transform="matrix(4.0952859,0,0,-4.0952859,-1672.4047,3202.1222)"
       id="g12"
       inkscape:export-filename="C:\Users\alex\sites\astrazeneca-logo-4.png"
       inkscape:export-xdpi="17.298937"
       inkscape:export-ydpi="17.298937">
      <g
         id="g14"
         clip-path="url(#clipPath18)">
        <g
           id="g20"
           transform="translate(467.7005,781.1091)">
          <path
             d="M 0,0 C 0.296,0.646 0.323,0.915 0.323,2.628 -0.445,2.506 -1.479,2.355 -2.747,2.085 -4.927,1.611 -5.3,0.794 -5.3,-0.026 c 0,-0.942 0.745,-1.737 2.207,-1.737 1.36,0 2.527,0.548 3.093,1.763 m 2.694,-3.235 -2.048,-0.01 c 0,0 -0.178,0.83 -0.234,1.729 -0.596,-0.615 -1.7,-1.893 -3.926,-1.893 -2.28,0 -3.973,1.354 -3.973,3.333 0,0.623 0.174,1.242 0.52,1.762 0.672,0.992 1.918,1.785 5.409,2.059 L 0.296,3.893 V 4.19 c 0,1.215 0,3.247 -2.615,3.247 -1.647,0 -2.203,-0.797 -2.398,-1.518 l -1.811,0.757 c 0.029,0.063 0.062,0.129 0.095,0.192 0.698,1.287 2.062,2.081 4.042,2.081 1.083,0 2.49,-0.273 3.409,-0.992 C 2.322,6.966 2.296,5.016 2.296,5.016 l 0.076,-6.014 c 0,0 0.072,-1.746 0.322,-2.237 M 68.135,0 c 0.297,0.646 0.321,0.915 0.321,2.628 -0.765,-0.122 -1.802,-0.273 -3.07,-0.543 -2.177,-0.474 -2.549,-1.291 -2.549,-2.111 0,-0.942 0.744,-1.737 2.203,-1.737 1.364,0 2.526,0.548 3.095,1.763 m 2.693,-3.235 -2.05,-0.01 c 0,0 -0.178,0.83 -0.233,1.729 -0.593,-0.615 -1.697,-1.893 -3.927,-1.893 -2.278,0 -3.968,1.354 -3.968,3.333 0,0.623 0.174,1.242 0.52,1.762 0.672,0.992 1.914,1.785 5.404,2.059 l 1.858,0.148 V 4.19 c 0,1.215 0,3.247 -2.618,3.247 -1.643,0 -2.207,-0.797 -2.395,-1.518 l -1.811,0.757 c 0.026,0.063 0.059,0.129 0.095,0.192 0.696,1.287 2.062,2.081 4.039,2.081 1.086,0 2.493,-0.273 3.411,-0.992 1.305,-0.991 1.273,-2.941 1.273,-2.941 l 0.081,-6.014 c 0,0 0.067,-1.746 0.321,-2.237 m -22.366,2.247 c -0.672,-1.143 -1.967,-2.451 -4.522,-2.451 -3.463,0 -5.451,2.352 -5.451,6.298 0,4.404 2.905,6.09 5.378,6.09 2.154,0 4.214,-1.19 4.907,-4.134 0.221,-0.991 0.221,-1.884 0.221,-2.378 H 40.57 c -0.049,-1.959 0.774,-4.44 3.544,-4.394 1.13,0.02 1.927,0.534 2.434,1.338 z M 40.623,3.85 h 6.218 c -0.174,3.067 -1.943,3.587 -3.122,3.587 -1.683,0 -2.876,-1.235 -3.096,-3.587 M 26.084,-0.988 c -0.672,-1.143 -1.966,-2.451 -4.519,-2.451 -3.465,0 -5.458,2.352 -5.458,6.298 0,4.404 2.909,6.09 5.382,6.09 2.151,0 4.213,-1.19 4.908,-4.134 0.22,-0.991 0.22,-1.884 0.22,-2.378 h -8.422 c -0.052,-1.959 0.771,-4.44 3.541,-4.394 1.13,0.02 1.927,0.534 2.435,1.338 z M 18.245,3.85 h 6.218 C 24.289,6.917 22.52,7.437 21.341,7.437 19.658,7.437 18.466,6.202 18.245,3.85 M 58.328,-0.395 C 57.915,-1.2 57.142,-1.927 55.62,-1.927 c -1.324,0 -3.546,0.834 -3.546,4.7 0,1.041 0.188,4.727 3.423,4.727 1.634,0 2.386,-0.889 2.734,-1.658 l 1.845,0.771 c -1.136,1.892 -3.185,2.333 -4.651,2.333 -3.735,0 -5.54,-3.005 -5.54,-6.321 0,-2.869 1.565,-6.064 5.711,-6.064 2.401,0 3.74,1.16 4.471,2.316 z M 27.751,8.498 V -3.235 h 1.968 v 6.654 c 0,0.87 0,1.759 0.871,2.625 0.622,0.619 1.37,0.889 2.239,0.889 1.07,0 2.167,-0.494 2.513,-1.607 0.126,-0.395 0.126,-0.741 0.126,-1.93 v -6.631 h 1.963 v 6.953 c 0,0.992 0,1.707 -0.201,2.401 -0.569,1.934 -2.359,2.682 -3.855,2.682 -0.694,0 -2.561,-0.174 -3.656,-2.089 V 8.498 Z M 4.088,12.19 v -1.9 h 8.768 L 4.081,-1.229 v -2.006 h 11.334 v 1.852 H 6.462 l 8.732,11.65 V 12.19 Z M -13.541,8.498 V -3.235 h 1.966 V 2.16 c 0,1.006 -0.026,2.198 0.498,3.048 0.639,1.04 1.587,1.435 3.517,1.449 V 8.689 C -8.353,8.663 -10.458,8.613 -11.575,6.4 v 2.098 z m -3.91,3.696 -2.029,-0.847 V 8.498 h -1.861 v -1.64 h 1.861 v -7.534 c -0.026,-1.532 -0.026,-2.638 2.253,-2.638 0.745,0 1.561,0.148 1.907,0.197 v 1.625 c -0.395,-0.123 -0.915,-0.271 -1.288,-0.271 -0.843,0 -0.843,0.593 -0.843,1.976 v 6.645 h 2.131 v 1.64 h -2.131 z m -6.38,-12.161 c 0,-1.258 -1.021,-1.927 -2.763,-1.927 -1.407,0 -2.352,0.395 -2.876,1.305 l -2.082,-0.366 c 0.81,-1.658 2.497,-2.451 4.872,-2.451 3.224,0 4.908,1.785 4.908,3.686 0,2.444 -2.253,3.106 -4.846,3.63 -1.251,0.25 -2.72,0.715 -2.72,1.824 0,0.79 0.77,1.703 2.315,1.703 1.578,0 2.52,-1.073 2.665,-1.498 L -22.53,6.7 c -0.837,1.597 -2.513,2.249 -4.269,2.249 -2.711,0 -4.509,-1.338 -4.509,-3.462 0,-2.417 2.072,-2.892 4.078,-3.327 1.726,-0.371 3.399,-0.796 3.399,-2.127 m -10.27,-3.268 h 2.164 l -5.616,15.429 h -2.141 L -45.57,-3.235 h 2.183 l 1.726,4.731 h 5.88 z m -6.904,6.459 2.361,6.411 2.25,-6.411 z"
             style="fill:#7d0f4f;fill-opacity:1;fill-rule:nonzero;stroke:none"
             id="path22"
             inkscape:connector-curvature="0" />
        </g>
        <g
           id="g24"
           transform="translate(560.5378,797.7753)">
          <path
             d="m 0,0 c -2.31,0.803 -8.024,2.933 -14.052,3.726 -2.072,0.272 -2.908,-0.464 -2.052,-2.44 0.839,-1.95 3.023,-5.218 5.31,-7.669 2.285,-2.451 4.766,-3.109 5.553,0.666 0.03,0.134 0.056,0.269 0.082,0.401 0.191,0.972 0.333,1.913 0.405,2.737 -1.014,0.46 -2.15,0.951 -3.287,1.431 0.063,-0.867 0.165,-2.362 0.218,-3.512 0.006,-0.148 0.013,-0.29 0.016,-0.429 0.069,-1.864 -0.566,-1.857 -1.627,-1.096 -1.235,0.883 -5.017,5.879 -5.451,8.085 -0.019,0.145 0.049,0.15 0.124,0.127 0.028,-0.011 0.057,-0.023 0.093,-0.038 0.004,0 0.006,-0.002 0.01,-0.002 0.854,-0.336 3.696,-1.457 6.584,-2.674 1.153,-0.486 2.31,-0.985 3.35,-1.456 1.024,-0.463 1.937,-0.896 2.619,-1.26 1.247,-0.668 1.732,-1.122 1.209,-1.656 -2.6,-2.638 -11.67,-6.39 -14.803,-11.028 0,0 -0.013,-0.016 -0.033,-0.046 -0.036,-0.049 -0.069,-0.105 -0.102,-0.164 -0.01,-0.017 -0.016,-0.037 -0.027,-0.053 -0.154,-0.283 -0.375,-0.777 -0.453,-1.378 -0.132,-1.013 0.394,-1.939 1.85,-2.332 0.365,-0.108 0.78,-0.187 1.235,-0.233 0.079,-0.006 0.168,-0.014 0.257,-0.016 2.796,-0.136 10.056,1.455 12.266,2.437 2.282,1.014 1.601,2.022 0.939,2.546 -0.495,0.395 -3.037,1.812 -4.269,2.494 -0.329,-0.211 -0.589,-0.376 -0.915,-0.587 2.098,-1.281 2.928,-1.917 3.419,-2.293 0.187,-0.148 0.085,-0.322 -0.195,-0.342 -0.076,-0.006 -0.138,-0.009 -0.224,-0.016 -1.992,-0.138 -5.767,-0.403 -7.539,-0.497 -0.26,-0.017 -0.553,-0.03 -0.715,-0.036 0.438,0.411 0.933,0.783 1.176,0.955 3.788,2.664 10.106,6.409 11.966,8.02 C 4.308,-6.442 8.049,-2.81 0,0 m -9.193,-10.026 c -0.306,-0.195 -0.613,-0.389 -0.917,-0.59 -3.534,1.964 -11.129,5.748 -11.788,6.091 -0.705,0.365 -1.934,0.858 -1.778,2.028 0.217,1.642 3.065,5.235 4.275,6.711 6.552,8.012 9.486,10.484 11.433,10.227 C -5.893,14.17 -4.741,12.025 -4.602,1.982 -5.759,2.34 -7.039,2.708 -8.4,3.048 -8.512,4.507 -8.783,6.71 -8.887,7.47 -9.003,8.328 -9.17,8.654 -9.516,8.701 -9.908,8.751 -10.863,7.834 -11.73,6.947 -12.125,6.545 -13.239,5.418 -14.467,4.18 c -1.027,0.067 -1.713,-0.147 -2.092,-0.647 -0.302,-0.404 -0.369,-0.956 -0.188,-1.65 -0.665,-0.663 -1.235,-1.236 -1.597,-1.596 -1.367,-1.363 -2.81,-2.49 -2.885,-3.043 -0.059,-0.451 0.633,-0.919 1.616,-1.506 2.406,-1.436 8.325,-4.637 10.42,-5.764"
             style="fill:#f9a70d;fill-opacity:1;fill-rule:nonzero;stroke:none"
             id="path26"
             inkscape:connector-curvature="0" />
        </g>
      </g>
    </g>
  </g>
</svg>
